# xmcd
#
# Track frame offsets:
#	150
#	15240
#	32392
#	51307
#	64922
#	83620
#	96487
#	109485
#	124685
#	137142
#	153887
#	175470
#
# Disc length: 2460 seconds
#
# Revision: 1
# Processed by: cddbd v1.5PL3 Copyright (c) Steve Scherf et al.
# Submitted via: audiograbber 1.83.01
#
DISCID=9a099a0c
DTITLE=Beausoleil - Arc De Triomphe Two Step
DYEAR=1996
DGENRE=Cajun - Zydeco
TTITLE0=Arc De Triomphe Two Step
TTITLE1=Love Bridge
TTITLE2=Bosco Mosco Stomp
TTITLE3=Jeune FIlle a la Campagne
TTITLE4=Bayou Tech
TTITLE5=Jonny Can't Dance
TTITLE6=Travailler C'est Trop Dur
TTITLE7=CIA
TTITLE8=Take It To Me
TTITLE9=Ti Maurice
TTITLE10=Valse de Grand Chemin
TTITLE11=Just Because
EXTD=EMI Hemisphere Records 
EXTT0=
EXTT1=
EXTT2=
EXTT3=
EXTT4=
EXTT5=
EXTT6=
EXTT7=
EXTT8=
EXTT9=
EXTT10=
EXTT11=
PLAYORDER=
